<?xml version="1.0" encoding="UTF-8"?>
<svg id="Layer_1" xmlns="http://www.w3.org/2000/svg" xmlns:xlink="http://www.w3.org/1999/xlink" version="1.1" viewBox="0 0 450 180">
  <!-- Generator: Adobe Illustrator 29.0.1, SVG Export Plug-In . SVG Version: 2.1.0 Build 192)  -->
  <defs>
    <style>
      .st0 {
        mask: url(#mask);
      }

      .st1 {
        fill: #f50;
      }

      .st2 {
        fill: url(#linear-gradient2);
      }

      .st3 {
        fill: url(#linear-gradient);
      }

      .st4 {
        stroke: url(#linear-gradient3);
      }

      .st4, .st5, .st6 {
        fill: none;
        stroke-linecap: round;
        stroke-width: 11.5px;
      }

      .st5 {
        stroke: url(#linear-gradient1);
      }

      .st7 {
        mask: url(#mask-1);
      }

      .st8 {
        fill: #004e41;
      }

      .st6 {
        stroke: #004e41;
      }
    </style>
    <mask id="mask" x="915.3" y="29.3" width="124" height="122" maskUnits="userSpaceOnUse">
      <g id="mask0_155_527">
        <path class="st8" d="M946.4,29.3c5.5,0,10,4.5,10,10v37.3c0,9.6,8.2,17.7,17.9,17.7s17.8-8.1,17.8-17.7v-37.3c0-5.5,4.5-10,10-10h21.1c5.5,0,10,4.5,10,10v37.3c0,32.2-26.5,58.4-58.9,58.4s-12.3-1-17.9-2.8v9c0,5.5-4.5,10-10,10h-21.1c-5.5,0-10-4.5-10-10V39.3c0-5.5,4.5-10,10-10h21.1Z"/>
      </g>
    </mask>
    <linearGradient id="linear-gradient" x1="1014.3" y1="155.8" x2="1014.3" y2="114.8" gradientTransform="translate(0 185) scale(1 -1)" gradientUnits="userSpaceOnUse">
      <stop offset=".2" stop-color="#f50"/>
      <stop offset="1" stop-color="#004e41"/>
    </linearGradient>
    <linearGradient id="linear-gradient1" x1="1177.5" y1="154.7" x2="1176.5" y2="98.7" gradientTransform="translate(0 185) scale(1 -1)" gradientUnits="userSpaceOnUse">
      <stop offset="1" stop-color="#004e41"/>
      <stop offset="1" stop-color="#000"/>
    </linearGradient>
    <mask id="mask-1" x="41.7" y="29.3" width="124" height="122" maskUnits="userSpaceOnUse">
      <g id="mask0_155_5271" data-name="mask0_155_527">
        <path class="st8" d="M72.9,29.3c5.5,0,10,4.5,10,10v37.3c0,9.6,8.2,17.7,17.9,17.7s17.8-8.1,17.8-17.7v-37.3c0-5.5,4.5-10,10-10h21.1c5.5,0,10,4.5,10,10v37.3c0,32.2-26.5,58.4-58.9,58.4s-12.3-1-17.9-2.8v9c0,5.5-4.5,10-10,10h-21.1c-5.5,0-10-4.5-10-10V39.3c0-5.5,4.5-10,10-10h21.1Z"/>
      </g>
    </mask>
    <linearGradient id="linear-gradient2" x1="140.7" x2="140.7" xlink:href="#linear-gradient"/>
    <linearGradient id="linear-gradient3" x1="303.9" x2="302.9" y2="98.7" xlink:href="#linear-gradient1"/>
  </defs>
  <path class="st8" d="M946.4,29.3c5.5,0,10,4.5,10,10v37.3c0,9.6,8.2,17.7,17.9,17.7s17.8-8.1,17.8-17.7v-37.3c0-5.5,4.5-10,10-10h21.1c5.5,0,10,4.5,10,10v37.3c0,32.2-26.5,58.4-58.9,58.4s-12.3-1-17.9-2.8v9c0,5.5-4.5,10-10,10h-21.1c-5.5,0-10-4.5-10-10V39.3c0-5.5,4.5-10,10-10h21.1Z"/>
  <g class="st0">
    <path class="st3" d="M989.3,75.3V29.3h50v46h-50Z"/>
  </g>
  <path class="st8" d="M1084.2,33.7c1.3-1.6,2.7-2.2,4.5-2.2,3,0,5.6,2.6,5.6,5.6v18.5l18.1-21.9c1.3-1.6,2.8-2.2,4.4-2.2,3,0,5.6,2.6,5.6,5.6v42.7c0,3.1-2.5,5.6-5.6,5.6s-5.6-2.6-5.6-5.6v-28.4l-17,20.6v7.8c0,3.1-2.5,5.6-5.6,5.6s-5.6-2.6-5.6-5.6v-28.3l-26.6,32.1c-1,1.2-2.6,1.9-4,1.9-2.9,0-5.2-2.3-5.2-5.3s.2-2.2,1.2-3.4l35.7-43.1Z"/>
  <path class="st8" d="M1131.3,52c0-2.3,2.5-4.3,5.5-4.3s5.5,1.9,5.5,4.3v29.5c0,2.3-2.5,4.3-5.5,4.3s-5.5-1.9-5.5-4.3v-29.5Z"/>
  <path class="st8" d="M1131.3,35.8c0-2.3,2.5-4.3,5.5-4.3s5.5,1.9,5.5,4.3v6.2c0,2.3-2.5,4.3-5.5,4.3s-5.5-1.9-5.5-4.3v-6.2Z"/>
  <path class="st1" d="M1171.3,35.8c0-2.3,2.5-4.3,5.5-4.3s5.5,1.9,5.5,4.3v10.5c0,2.3-2.5,4.3-5.5,4.3s-5.5-1.9-5.5-4.3v-10.5Z"/>
  <path class="st6" d="M1191.9,44.6c2.9,2.9,4.9,6.7,5.7,10.8.8,4.1.4,8.3-1.2,12.1-1.6,3.8-4.3,7.1-7.7,9.4-3.5,2.3-7.5,3.5-11.7,3.5s-8.2-1.2-11.7-3.5c-3.5-2.3-6.1-5.6-7.7-9.4-1.6-3.8-2-8.1-1.2-12.1.8-4.1,2.8-7.8,5.7-10.8"/>
  <path class="st6" d="M1191.9,44.1c2.9,2.9,4.9,6.7,5.7,10.8.8,4.1.4,8.3-1.2,12.1-1.6,3.8-4.3,7.1-7.7,9.4-3.5,2.3-7.5,3.5-11.7,3.5s-8.2-1.2-11.7-3.5c-3.5-2.3-6.1-5.6-7.7-9.4-1.6-3.8-2-8.1-1.2-12.1.8-4.1,2.8-7.8,5.7-10.8"/>
  <path class="st5" d="M1191.9,44.1c2.9,2.9,4.9,6.7,5.7,10.8.8,4.1.4,8.3-1.2,12.1-1.6,3.8-4.3,7.1-7.7,9.4-3.5,2.3-7.5,3.5-11.7,3.5s-8.2-1.2-11.7-3.5c-3.5-2.3-6.1-5.6-7.7-9.4-1.6-3.8-2-8.1-1.2-12.1.8-4.1,2.8-7.8,5.7-10.8"/>
  <path class="st8" d="M1217.1,31.5c-3.3,0-5.8,2.6-5.8,6v42.7c0,3.1,2.5,5.7,5.6,5.7s5.6-2.6,5.6-5.7v-27.9l19.7,27.8h0c0,3.1,2.5,5.7,5.6,5.7s5.6-2.6,5.6-5.7l-1-3.4-10.2-14.2-20.6-29c-.9-1.1-2.6-2-4.5-2Z"/>
  <path class="st8" d="M1247.5,85.8c3.3,0,5.8-2.6,5.8-6v-42.7c0-3.1-2.5-5.7-5.6-5.7s-5.6,2.6-5.6,5.7v27.9l-19.7-27.8h0c0-3.1-2.5-5.7-5.6-5.7s-5.6,2.6-5.6,5.7l1,3.4,10.2,14.2,20.6,29c.9,1.1,2.6,2,4.5,2Z"/>
  <path class="st8" d="M1047.3,106.4c0-3.1,2.5-5.6,5.4-5.6h18.5c2.8,0,5.1,2.3,5.1,5.2s-2.2,5.2-5.1,5.2h-13.1v10.4h13.1c2.8,0,5.1,2.3,5.1,5.2s-2.2,5.2-5.1,5.2h-13.1v16c0,3.1-2.5,5.6-5.4,5.6s-5.4-2.5-5.4-5.6v-41.8Z"/>
  <path class="st8" d="M1081.3,127.3c0-14.8,11.9-26.5,27-26.5s27,11.7,27,26.5-11.9,26.5-27,26.5-27-11.7-27-26.5ZM1123.7,127.3c0-8.8-6.8-15.8-15.4-15.8s-15.4,7-15.4,15.8,6.8,15.8,15.4,15.8,15.4-7,15.4-15.8Z"/>
  <path class="st8" d="M1142.3,106.4c0-3.1,2.6-5.6,5.7-5.6h13.5c10.3,0,17.4,7.4,17.4,16.4s-4.2,11.7-8.3,13.4l-.4.2,11.8,13.9c1,1.2,1.3,2.4,1.3,3.7,0,3.1-2.5,5.5-5.6,5.5s-3.3-.7-4.4-2l-16.4-19.2c-.8-1-1.7-2.4-1.7-4.3,0-2.8,2.3-5.1,5.1-5.1h.8c3.3,0,6.1-2.7,6.1-6s-2.7-6-6.1-6h-7.4v36.9c0,3.1-2.6,5.6-5.7,5.6s-5.7-2.5-5.7-5.6v-41.8Z"/>
  <path class="st8" d="M1187.3,106.4c0-3.1,2.5-5.7,5.6-5.7h19.1c2.9,0,5.2,2.4,5.2,5.3s-2.3,5.3-5.2,5.3h-13.5v10.6h13.5c2.9,0,5.2,2.4,5.2,5.3s-2.3,5.3-5.2,5.3h-13.5v10.6h13.5c2.9,0,5.2,2.4,5.2,5.3s-2.3,5.3-5.2,5.3h-19.1c-3.1,0-5.6-2.6-5.6-5.7v-41.6Z"/>
  <path class="st8" d="M1223.3,142c0-3,2.5-5.5,5.6-5.5s3.6,1.2,4.6,2.5c1.5,2,2.6,4.5,6.6,4.5s6-2.6,6-5.9-3.1-4.6-7-5.9l-3.8-1.3c-5.7-1.8-11.6-5.3-11.6-15s7.3-14.6,16.4-14.6,16,7.1,16,11-2.5,5.5-5.6,5.5-3.3-1-4.3-2.3c-1.4-1.8-2.6-3.9-6-3.9s-5.2,2.3-5.2,5.1,2.8,4.5,5.9,5.4l3.2,1c6.3,2,13.3,5,13.3,15.7s-7.5,15.5-17.2,15.5-16.8-7.2-16.8-11.8Z"/>
  <path class="st8" d="M1271.7,111.2h-8.2c-2.9,0-5.2-2.3-5.2-5.2s2.3-5.2,5.2-5.2h27.6c2.9,0,5.2,2.3,5.2,5.2s-2.3,5.2-5.2,5.2h-8.2v36.9c0,3.1-2.5,5.6-5.6,5.6s-5.6-2.5-5.6-5.6v-36.9Z"/>
  <path class="st8" d="M72.9,29.3c5.5,0,10,4.5,10,10v37.3c0,9.6,8.2,17.7,17.9,17.7s17.8-8.1,17.8-17.7v-37.3c0-5.5,4.5-10,10-10h21.1c5.5,0,10,4.5,10,10v37.3c0,32.2-26.5,58.4-58.9,58.4s-12.3-1-17.9-2.8v9c0,5.5-4.5,10-10,10h-21.1c-5.5,0-10-4.5-10-10V39.3c0-5.5,4.5-10,10-10h21.1Z"/>
  <g class="st7">
    <path class="st2" d="M115.7,75.3V29.3h50v46h-50Z"/>
  </g>
  <path class="st8" d="M210.6,33.7c1.3-1.6,2.7-2.2,4.5-2.2,3,0,5.6,2.6,5.6,5.6v18.5l18.1-21.9c1.3-1.6,2.8-2.2,4.4-2.2,3,0,5.6,2.6,5.6,5.6v42.7c0,3.1-2.5,5.6-5.6,5.6s-5.6-2.6-5.6-5.6v-28.4l-17,20.6v7.8c0,3.1-2.5,5.6-5.6,5.6s-5.6-2.6-5.6-5.6v-28.3l-26.6,32.1c-1,1.2-2.6,1.9-4,1.9-2.9,0-5.2-2.3-5.2-5.3s.2-2.2,1.2-3.4l35.7-43.1Z"/>
  <path class="st8" d="M257.7,52c0-2.3,2.5-4.3,5.5-4.3s5.5,1.9,5.5,4.3v29.5c0,2.3-2.5,4.3-5.5,4.3s-5.5-1.9-5.5-4.3v-29.5Z"/>
  <path class="st8" d="M257.7,35.8c0-2.3,2.5-4.3,5.5-4.3s5.5,1.9,5.5,4.3v6.2c0,2.3-2.5,4.3-5.5,4.3s-5.5-1.9-5.5-4.3v-6.2Z"/>
  <path class="st1" d="M297.7,35.8c0-2.3,2.5-4.3,5.5-4.3s5.5,1.9,5.5,4.3v10.5c0,2.3-2.5,4.3-5.5,4.3s-5.5-1.9-5.5-4.3v-10.5Z"/>
  <path class="st6" d="M318.3,44.6c2.9,2.9,4.9,6.7,5.7,10.8.8,4.1.4,8.3-1.2,12.1-1.6,3.8-4.3,7.1-7.7,9.4-3.5,2.3-7.5,3.5-11.7,3.5s-8.2-1.2-11.7-3.5c-3.5-2.3-6.1-5.6-7.7-9.4-1.6-3.8-2-8.1-1.2-12.1.8-4.1,2.8-7.8,5.7-10.8"/>
  <path class="st6" d="M318.3,44.1c2.9,2.9,4.9,6.7,5.7,10.8.8,4.1.4,8.3-1.2,12.1-1.6,3.8-4.3,7.1-7.7,9.4-3.5,2.3-7.5,3.5-11.7,3.5s-8.2-1.2-11.7-3.5c-3.5-2.3-6.1-5.6-7.7-9.4-1.6-3.8-2-8.1-1.2-12.1.8-4.1,2.8-7.8,5.7-10.8"/>
  <path class="st4" d="M318.3,44.1c2.9,2.9,4.9,6.7,5.7,10.8.8,4.1.4,8.3-1.2,12.1-1.6,3.8-4.3,7.1-7.7,9.4-3.5,2.3-7.5,3.5-11.7,3.5s-8.2-1.2-11.7-3.5c-3.5-2.3-6.1-5.6-7.7-9.4-1.6-3.8-2-8.1-1.2-12.1.8-4.1,2.8-7.8,5.7-10.8"/>
  <path class="st8" d="M343.5,31.5c-3.3,0-5.8,2.6-5.8,6v42.7c0,3.1,2.5,5.7,5.6,5.7s5.6-2.6,5.6-5.7v-27.9l19.7,27.8h0c0,3.1,2.5,5.7,5.6,5.7s5.6-2.6,5.6-5.7l-1-3.4-10.2-14.2-20.6-29c-.9-1.1-2.6-2-4.5-2Z"/>
  <path class="st8" d="M373.9,85.8c3.3,0,5.8-2.6,5.8-6v-42.7c0-3.1-2.5-5.7-5.6-5.7s-5.6,2.6-5.6,5.7v27.9l-19.7-27.8h0c0-3.1-2.5-5.7-5.6-5.7s-5.6,2.6-5.6,5.7l1,3.4,10.2,14.2,20.6,29c.9,1.1,2.6,2,4.5,2Z"/>
  <path class="st8" d="M173.7,106.4c0-3.1,2.5-5.6,5.4-5.6h18.5c2.8,0,5.1,2.3,5.1,5.2s-2.2,5.2-5.1,5.2h-13.1v10.4h13.1c2.8,0,5.1,2.3,5.1,5.2s-2.2,5.2-5.1,5.2h-13.1v16c0,3.1-2.5,5.6-5.4,5.6s-5.4-2.5-5.4-5.6v-41.8Z"/>
  <path class="st8" d="M207.7,127.3c0-14.8,11.9-26.5,27-26.5s27,11.7,27,26.5-11.9,26.5-27,26.5-27-11.7-27-26.5ZM250.1,127.3c0-8.8-6.8-15.8-15.4-15.8s-15.4,7-15.4,15.8,6.8,15.8,15.4,15.8,15.4-7,15.4-15.8Z"/>
  <path class="st8" d="M268.7,106.4c0-3.1,2.6-5.6,5.7-5.6h13.5c10.3,0,17.4,7.4,17.4,16.4s-4.2,11.7-8.3,13.4l-.4.2,11.8,13.9c1,1.2,1.3,2.4,1.3,3.7,0,3.1-2.5,5.5-5.6,5.5s-3.3-.7-4.4-2l-16.4-19.2c-.8-1-1.7-2.4-1.7-4.3,0-2.8,2.3-5.1,5.1-5.1h.8c3.3,0,6.1-2.7,6.1-6s-2.7-6-6.1-6h-7.4v36.9c0,3.1-2.6,5.6-5.7,5.6s-5.7-2.5-5.7-5.6v-41.8Z"/>
  <path class="st8" d="M313.7,106.4c0-3.1,2.5-5.7,5.6-5.7h19.1c2.9,0,5.2,2.4,5.2,5.3s-2.3,5.3-5.2,5.3h-13.5v10.6h13.5c2.9,0,5.2,2.4,5.2,5.3s-2.3,5.3-5.2,5.3h-13.5v10.6h13.5c2.9,0,5.2,2.4,5.2,5.3s-2.3,5.3-5.2,5.3h-19.1c-3.1,0-5.6-2.6-5.6-5.7v-41.6Z"/>
  <path class="st8" d="M349.7,142c0-3,2.5-5.5,5.6-5.5s3.6,1.2,4.6,2.5c1.5,2,2.6,4.5,6.6,4.5s6-2.6,6-5.9-3.1-4.6-7-5.9l-3.8-1.3c-5.7-1.8-11.6-5.3-11.6-15s7.3-14.6,16.4-14.6,16,7.1,16,11-2.5,5.5-5.6,5.5-3.3-1-4.3-2.3c-1.4-1.8-2.6-3.9-6-3.9s-5.2,2.3-5.2,5.1,2.8,4.5,5.9,5.4l3.2,1c6.3,2,13.3,5,13.3,15.7s-7.5,15.5-17.2,15.5-16.8-7.2-16.8-11.8Z"/>
  <path class="st8" d="M398.2,111.2h-8.2c-2.9,0-5.2-2.3-5.2-5.2s2.3-5.2,5.2-5.2h27.6c2.9,0,5.2,2.3,5.2,5.2s-2.3,5.2-5.2,5.2h-8.2v36.9c0,3.1-2.5,5.6-5.6,5.6s-5.6-2.5-5.6-5.6v-36.9Z"/>
</svg>